<svg width="195" height="275" viewBox="0 0 195 275" fill="none" xmlns="http://www.w3.org/2000/svg">
<path fill-rule="evenodd" clip-rule="evenodd" d="M2 55.0689L20.0375 250.484L98.2051 271.532L176.371 250.484L194.411 55.0689H2Z" fill="#1758A7"/>
<path fill-rule="evenodd" clip-rule="evenodd" d="M98.2039 70.8975V254.746L98.3803 254.793L161.638 237.76L176.238 70.8975H98.2039Z" fill="#379AD6"/>
<path fill-rule="evenodd" clip-rule="evenodd" d="M97.9848 204.757L97.9426 204.769L71.8273 198.112L70.2447 178.941H45.9758L49.141 215.952L98.2063 230.596V204.694L97.9848 204.757Z" fill="#E8E8E7"/>
<path fill-rule="evenodd" clip-rule="evenodd" d="M98.2062 142.791V166.304H98.276L127.281 166.336L125.42 197.07L98.276 204.717L98.2062 204.737V230.57L98.276 230.591L98.2953 230.596L147.491 216.228L153.874 142.791H98.2062Z" fill="#FBFBFA"/>
<path fill-rule="evenodd" clip-rule="evenodd" d="M42.5428 142.791L44.3897 166.279L44.3926 166.316L98.2063 166.319V142.791H42.5428Z" fill="#E5E4E2"/>
<path fill-rule="evenodd" clip-rule="evenodd" d="M42.5463 142.791H98.0697L98.2062 142.732V119.257L42.5463 142.791Z" fill="#EEEEEE"/>
<path fill-rule="evenodd" clip-rule="evenodd" d="M101.459 118.114L98.2062 119.476V142.786L155.601 118.114H101.459Z" fill="white"/>
<path fill-rule="evenodd" clip-rule="evenodd" d="M37.383 94.5875L40.2916 118.114H98.2062V94.5875H37.383Z" fill="#E7E7E6"/>
<path fill-rule="evenodd" clip-rule="evenodd" d="M98.2062 118.114L157.879 94.5875H98.2062V118.114ZM98.2221 118.114H155.503L157.88 94.5875L98.2221 118.114Z" fill="#F8F8F7"/>
<path fill-rule="evenodd" clip-rule="evenodd" d="M41.1143 37.9725H70.8113V26.358H53.842V14.7272H70.8113V2H41.1143V37.9725V37.9725ZM83.5027 14.7277C87.476 18.701 89.5479 20.6023 95.2947 26.3498C91.9361 26.3498 83.5027 26.3621 83.5027 26.3609V37.9725H113.202V26.358L101.339 14.7272H113.202V2H83.5027C83.5027 2 83.5027 8.38789 83.5027 14.7277ZM155.297 2H125.596C125.596 2 125.596 8.38789 125.596 14.7277C129.569 18.701 131.642 20.6023 137.389 26.3498C134.032 26.3498 125.596 26.3621 125.596 26.3609V37.9725H155.297V26.358L143.434 14.7272H155.297V2Z" fill="#1B1B1B"/>
</svg>
