<svg width="195" height="275" viewBox="0 0 195 275" fill="none" xmlns="http://www.w3.org/2000/svg">
<path fill-rule="evenodd" clip-rule="evenodd" d="M3 55.9658L20.3766 250.868L98.3537 272.515L176.546 250.837L193.942 55.9658H3Z" fill="#E44D26"/>
<path fill-rule="evenodd" clip-rule="evenodd" d="M98.4709 95.8061H38.5306L39.1031 102.219L44.9783 168.091H98.4709V144.188H66.8396L64.6547 119.711H98.4709V95.8061V95.8061ZM71.7439 199.109L70.0418 180.045H46.0459L49.3951 217.577L98.3607 231.17L98.4709 231.139V206.269L98.366 206.297L71.7439 199.109V199.109Z" fill="#EBEBEB"/>
<path fill-rule="evenodd" clip-rule="evenodd" d="M98.4709 71.9016V255.946L161.654 238.429L176.52 71.9016H98.4709Z" fill="#F16529"/>
<path fill-rule="evenodd" clip-rule="evenodd" d="M98.3877 168.092H127.823L125.048 199.094L98.3877 206.29V231.158L147.392 217.577L147.752 213.538L153.369 150.607L153.952 144.188H98.3877V168.092V168.092ZM98.3877 95.8061V119.711H156.127L156.606 114.338L157.696 102.219L158.267 95.8061H98.3877Z" fill="white"/>
<path fill-rule="evenodd" clip-rule="evenodd" d="M44.025 15.0018H32.9127V3H20.7656V39.3445H32.9133V27.174H44.025V39.3445H56.1727V3H44.0244V15.0018H44.025ZM61.4537 15.0521H72.1482V39.3445H84.2965V15.0521H94.9957V3H61.4537V15.0521ZM120.778 15.7705L112.985 3H100.319V39.3445H112.205V21.3299L120.568 34.2527H120.777L129.134 21.3299V39.3445H141.231V3H128.56L120.778 15.7705ZM159.429 27.3311V3H147.278V39.3445H176.513V27.3311H159.429Z" fill="black"/>
</svg>
