<?xml version="1.0" encoding="utf-8"?>
<!-- Generator: Adobe Illustrator 15.0.0, SVG Export Plug-In . SVG Version: 6.00 Build 0)  -->
<!DOCTYPE svg PUBLIC "-//W3C//DTD SVG 1.1//EN" "http://www.w3.org/Graphics/SVG/1.1/DTD/svg11.dtd">
<svg version="1.1" id="Layer_1" xmlns="http://www.w3.org/2000/svg" xmlns:xlink="http://www.w3.org/1999/xlink" x="0px" y="0px"
	 width="332.292px" height="88.834px" viewBox="1.01 0 332.292 88.834" enable-background="new 1.01 0 332.292 88.834"
	 xml:space="preserve">
<polyline fill="none" points="424.244,54.832 223.253,54.832 77.761,54.832 -40.346,54.832 "/>
<path fill="none" d="M2.777,107.243"/>
<line fill="none" x1="-6.938" y1="107.243" x2="12.832" y2="107.243"/>
<path fill="none" d="M2.534,107.252"/>
<line fill="none" x1="-1.403" y1="107.252" x2="6.837" y2="107.252"/>
<path fill="none" d="M343.185-204.127c-0.094,171.986-4.596,311.394-10.053,311.37c-5.457,0.01-9.811-139.423-9.713-311.391"/>
<line fill="none" x1="323.417" y1="107.243" x2="343.188" y2="107.243"/>
<path fill="none" d="M332.89,107.252c-2.271,0.017-4.03-139.413-3.934-311.383"/>
<line fill="none" x1="328.953" y1="107.252" x2="337.193" y2="107.252"/>
<path fill="none" d="M0.002,107.243"/>
<line fill="none" x1="-9.714" y1="107.243" x2="10.057" y2="107.243"/>
<path fill="none" d="M-0.242,107.252"/>
<line fill="none" x1="-4.177" y1="107.252" x2="4.062" y2="107.252"/>
<path fill="none" d="M167.344,125.043C74.919,124.958,0.005,119.19,0,112.172"/>
<path fill="none" d="M0,112.172c0.017-7.021,74.938-12.639,167.359-12.549c92.423,0.088,167.333,5.851,167.322,12.867"/>
<polyline fill="none" points="334.681,125.045 334.681,99.622 0,99.622 0,125.045 "/>
<polygon fill="#427E72" points="228.596,32.861 198.798,8.254 62.085,76.713 0.172,51.767 0.172,110.668 334.688,110.668 334.688,0 
	"/>
<polygon fill="#6FBAAA" points="226.006,41.101 196.208,16.493 59.495,84.952 0.172,61.045 0.172,110.668 334.688,110.668 
	334.688,7.438 "/>
<polygon fill="#094438" points="225.77,43.751 196.282,19.147 59.844,87.334 0.172,63.368 0.172,110.668 334.688,110.668 
	334.688,9.295 "/>
<path fill="#A0EDEF" d="M225.77,42.983l-0.819,0.352"/>
<line fill="none" x1="0.172" y1="110.668" x2="334.688" y2="110.668"/>
</svg>
