<?xml version="1.0" encoding="utf-8"?>
<!-- Generator: Adobe Illustrator 15.0.0, SVG Export Plug-In . SVG Version: 6.00 Build 0)  -->
<!DOCTYPE svg PUBLIC "-//W3C//DTD SVG 1.1//EN" "http://www.w3.org/Graphics/SVG/1.1/DTD/svg11.dtd">
<svg version="1.1" id="Layer_1" xmlns="http://www.w3.org/2000/svg" xmlns:xlink="http://www.w3.org/1999/xlink" x="0px" y="0px"
	 width="332.17px" height="106px" viewBox="0.96 0 332.17 106" enable-background="new 0.96 0 332.17 106" xml:space="preserve">
<polyline fill="none" points="411.746,70.376 210.755,70.376 77.589,60.566 -40.518,60.566 "/>
<path fill="none" d="M2.605,127.408"/>
<line fill="none" x1="-7.11" y1="127.408" x2="12.66" y2="127.408"/>
<path fill="none" d="M2.362,127.418"/>
<line fill="none" x1="-1.575" y1="127.418" x2="6.665" y2="127.418"/>
<path fill="none" d="M343.013-183.961c-0.064,118.213-5.723,311.388-10.053,311.37c-6.584,0.012-9.781-193.202-9.713-311.391"/>
<line fill="none" x1="323.246" y1="127.408" x2="343.015" y2="127.408"/>
<path fill="none" d="M332.718,127.418c-3.398,0.023-4.002-193.197-3.934-311.383"/>
<line fill="none" x1="328.781" y1="127.418" x2="337.021" y2="127.418"/>
<path fill="none" d="M-0.17,127.408"/>
<line fill="none" x1="-9.886" y1="127.408" x2="9.885" y2="127.408"/>
<path fill="none" d="M-0.414,127.418"/>
<line fill="none" x1="-4.349" y1="127.418" x2="3.89" y2="127.418"/>
<path fill="none" d="M167.172,145.209c-92.425-0.086-167.339-5.854-167.344-12.871"/>
<path fill="none" d="M-0.172,132.338c0.017-7.02,74.938-12.639,167.359-12.549c92.423,0.088,167.332,5.85,167.322,12.867"/>
<polyline fill="none" points="334.509,145.211 334.509,119.787 -0.172,119.787 -0.172,145.211 "/>
<polygon fill="#427E72" points="245.171,50.756 200.41,43.203 97.909,91.701 0,57.5 0,130.834 334.515,130.834 334.103,0 "/>
<polygon fill="#6FBAAA" points="242.582,58.996 197.819,51.441 95.319,99.939 0,66.779 0,130.834 334.515,130.834 334.103,7.438 "/>
<polygon fill="#094438" points="243.671,61.23 198.307,53.688 95.672,102.333 0,69.102 0,130.834 334.515,130.834 334.107,10 "/>
<path fill="#A0EDEF" d="M242.346,60.878l-0.82,0.353"/>
<line fill="none" x1="0" y1="130.834" x2="334.515" y2="130.834"/>
</svg>
