<svg width="195" height="275" viewBox="0 0 195 275" fill="none" xmlns="http://www.w3.org/2000/svg">
<g clip-path="url(#clip0)">
<path d="M0.65472 53.7378L0.685149 56.1954C0.702327 57.547 4.61246 102.299 9.3746 155.645L18.0336 252.636L56.9509 263.548C78.3552 269.55 96.3098 274.491 96.8497 274.529C97.3896 274.567 115.581 269.675 137.276 263.66C172.058 254.015 176.754 252.562 177.003 251.368C177.35 249.705 194.383 57.2708 194.365 55.2124L194.353 53.7378H97.5034H0.65472Z" fill="white"/>
<path d="M57.2591 264.202L17.9958 253.21L17.4825 250.302C17.026 247.716 0 57.2688 0 54.7528C0 53.842 9.94146 53.7383 97.5039 53.7383C189.931 53.7383 195.007 53.7982 195 54.8855C194.969 59.5809 177.345 252.55 176.912 252.935C176.365 253.42 100.37 274.623 97.8313 274.999C97.1113 275.105 78.8539 270.246 57.2591 264.201V264.202ZM122.261 225.365C135.458 221.72 146.446 218.55 146.679 218.321C146.911 218.091 148.456 202.42 150.11 183.497C151.765 164.574 153.286 147.838 153.49 146.306L153.861 143.521H96.8492V167.769H127.631L127.324 169.243C127.156 170.054 126.501 177.024 125.87 184.731C125.201 192.897 124.407 199.058 123.968 199.498C123.554 199.913 117.282 201.836 110.032 203.771L96.8492 207.291V219.642C96.8492 228.072 97.0745 231.993 97.5584 231.993C97.9481 231.993 109.064 229.01 122.261 225.365V225.365ZM153.486 128.284C153.054 125.073 149.2 82.0021 149.2 80.3781C149.2 79.3917 146.935 79.2968 123.352 79.2968H97.5039V104.653L109.119 105.101C115.508 105.348 122.231 105.723 124.06 105.935L127.385 106.321L128.192 116.237C128.636 121.692 129.165 127.26 129.368 128.612L129.736 131.07H153.861L153.486 128.284Z" fill="#EAEBEC"/>
<path d="M56.9509 263.548L18.0336 252.636L9.3741 155.645C4.61245 102.299 0.702318 57.5475 0.68514 56.1958L0.654221 53.7383H194.353L194.366 55.2128C194.383 57.2722 177.35 249.705 177.003 251.369C176.753 252.563 172.058 254.015 137.276 263.66C115.581 269.676 97.3891 274.567 96.8492 274.529C96.3093 274.491 78.3552 269.55 56.9509 263.549V263.548ZM122.29 225.829C135.743 222.084 146.941 218.71 147.175 218.332C147.408 217.953 149.015 201.483 150.746 181.729C152.477 161.977 154.035 145.299 154.208 144.668C154.506 143.585 152.217 143.521 112.73 143.521H70.9359L72.7156 124.68C73.6942 114.317 74.5187 105.812 74.5472 105.779C74.5761 105.746 80.71 105.551 88.1784 105.344C100.424 105.005 125.677 105.983 126.522 106.829C126.837 107.145 128.914 127.546 128.914 130.332C128.914 131.705 129.099 131.725 141.594 131.725H154.274L153.975 128.94C153.811 127.408 152.737 115.538 151.589 102.562L149.5 78.97L100.598 78.8019C61.6939 78.6682 51.6955 78.8019 51.6906 79.457C51.6871 79.9102 51.4025 82.787 51.0574 85.8511C50.2211 93.2645 43.8433 164.897 43.8433 166.875V168.425H127.066L126.695 170.882C126.491 172.234 125.844 179.091 125.258 186.119C124.671 193.148 124.002 199.08 123.771 199.301C123.161 199.888 98.6823 206.437 97.1555 206.422C96.4473 206.416 90.1249 204.836 83.1066 202.912L70.346 199.414L69.8783 193.913C69.6053 190.713 69.3154 187.514 69.0086 184.316L68.6062 180.221H43.8443L43.8718 182.678C43.9233 187.274 46.899 218.231 47.3314 218.664C47.831 219.164 95.3857 232.552 96.8497 232.604C97.3896 232.623 108.838 229.575 122.291 225.829L122.29 225.829Z" fill="#F0BE25"/>
<path d="M56.9509 263.548L18.0336 252.636L9.3741 155.645C4.61245 102.299 0.702318 57.5475 0.68514 56.1958L0.654221 53.7383H194.353L194.366 55.2128C194.383 57.2722 177.35 249.705 177.003 251.369C176.753 252.563 172.058 254.015 137.276 263.66C115.581 269.676 97.3891 274.567 96.8492 274.529C96.3093 274.491 78.3552 269.55 56.9509 263.549V263.548ZM129.526 248.95C146.645 244.219 160.974 240.017 161.367 239.612C161.979 238.98 176.764 76.6982 176.704 71.269L176.685 69.4666H97.5039V78.6416H74.6002C56.7163 78.6416 51.695 78.821 51.6911 79.461C51.6876 79.9112 51.403 82.7865 51.0579 85.8506C50.2216 93.2641 43.8438 164.896 43.8438 166.875V168.424H97.5039V187.429C97.5039 202.203 97.3218 206.431 96.6858 206.422C96.2357 206.415 90.1254 204.835 83.1071 202.912L70.3465 199.414L69.8788 193.913C69.6056 190.712 69.3155 187.513 69.0086 184.316L68.6062 180.221H43.8443L43.8718 182.678C43.9503 189.707 46.9868 218.401 47.699 218.841C48.1318 219.109 59.5148 222.385 72.9948 226.121L97.5044 232.912V245.232C97.5044 252.008 97.7056 257.551 97.9525 257.551C98.1989 257.551 112.407 253.681 129.527 248.95L129.526 248.95ZM72.6468 124.855C73.5877 114.59 74.4858 106.074 74.6424 105.932C74.7995 105.79 80.0067 105.533 86.2152 105.361L97.5034 105.048V143.521H70.9364L72.6468 124.855Z" fill="#E4A126"/>
<path d="M62.167 30.4736V24.2477H79.8355V0H92.2687V36.6996H62.167V30.4736ZM98.1582 31.7845V26.8694H106.338C110.837 26.8694 114.518 26.7023 114.518 26.4993C114.518 26.2953 110.837 22.1337 106.338 17.2505L98.1582 8.37239V0H132.186V9.7899L124.199 9.97373L116.211 10.158L124.526 19.1252L132.84 28.0923V36.6996H98.1582V31.7845Z" fill="#0E0E0F"/>
</g>
<defs>
<clipPath id="clip0">
<rect width="195" height="275" fill="white"/>
</clipPath>
</defs>
</svg>
