<svg width="300" height="187" viewBox="0 0 300 187" fill="none" xmlns="http://www.w3.org/2000/svg">
<path d="M148.653 183.588C147.686 183.589 146.735 183.334 145.897 182.851L137.121 177.659C135.811 176.925 136.451 176.666 136.883 176.515C138.631 175.909 138.985 175.768 140.851 174.711C141.045 174.601 141.303 174.643 141.503 174.761L148.245 178.763C148.489 178.899 148.834 178.899 149.059 178.763L175.341 163.593C175.586 163.454 175.743 163.172 175.743 162.882V132.551C175.743 132.406 175.705 132.263 175.634 132.136C175.562 132.009 175.459 131.903 175.335 131.827L149.063 116.67C148.94 116.601 148.8 116.564 148.658 116.564C148.516 116.564 148.377 116.601 148.253 116.67L121.988 131.832C121.862 131.905 121.758 132.01 121.685 132.137C121.612 132.263 121.573 132.406 121.571 132.551V162.882C121.571 163.172 121.732 163.447 121.986 163.585L129.186 167.745C133.092 169.698 135.484 167.397 135.484 165.086V135.139C135.483 135.039 135.503 134.94 135.542 134.847C135.58 134.755 135.636 134.671 135.707 134.601C135.779 134.53 135.863 134.475 135.955 134.437C136.048 134.4 136.147 134.381 136.247 134.382H139.58C139.997 134.382 140.342 134.716 140.342 135.139V165.086C140.342 170.3 137.503 173.29 132.56 173.29C131.041 173.29 129.845 173.29 126.506 171.645L119.614 167.677C118.775 167.188 118.08 166.489 117.596 165.647C117.112 164.806 116.858 163.853 116.857 162.882V132.551C116.857 130.581 117.911 128.741 119.614 127.761L145.897 112.574C147.56 111.633 149.77 111.633 151.42 112.574L177.701 127.761C178.54 128.249 179.236 128.947 179.721 129.788C180.205 130.628 180.461 131.581 180.462 132.551V162.882C180.46 163.853 180.204 164.806 179.72 165.647C179.236 166.488 178.54 167.188 177.701 167.677L151.42 182.851C150.579 183.336 149.624 183.59 148.653 183.588V183.588Z" fill="#699F63"/>
<path d="M156.772 162.692C145.27 162.692 142.861 157.413 142.861 152.985C142.861 152.564 143.199 152.228 143.621 152.228H147.019C147.399 152.228 147.715 152.501 147.774 152.872C148.288 156.331 149.817 158.077 156.772 158.077C162.309 158.077 164.666 156.824 164.666 153.887C164.666 152.193 163.999 150.936 155.393 150.093C148.203 149.382 143.755 147.793 143.755 142.04C143.755 136.737 148.224 133.574 155.719 133.574C164.139 133.574 168.305 136.497 168.833 142.766C168.853 142.982 168.776 143.19 168.632 143.351C168.561 143.427 168.474 143.488 168.379 143.529C168.283 143.571 168.18 143.593 168.076 143.593H164.664C164.492 143.593 164.326 143.534 164.191 143.426C164.057 143.318 163.964 143.168 163.927 143C163.109 139.36 161.118 138.197 155.719 138.197C149.674 138.197 148.971 140.303 148.971 141.88C148.971 143.792 149.801 144.349 157.962 145.429C166.039 146.496 169.876 148.009 169.876 153.685C169.875 159.412 165.1 162.692 156.772 162.692V162.692Z" fill="#699F63"/>
<path d="M194.67 130.882C194.67 133.669 192.392 135.947 189.605 135.947C186.844 135.947 184.54 133.696 184.54 130.882C184.54 128.014 186.899 125.816 189.605 125.816C192.339 125.816 194.67 128.014 194.67 130.882ZM185.358 130.868C185.358 133.227 187.261 135.13 189.591 135.13C191.951 135.13 193.854 133.187 193.854 130.868C193.854 128.51 191.925 126.634 189.591 126.634C187.287 126.634 185.358 128.482 185.358 130.868ZM187.702 128.041H189.66C190.33 128.041 191.643 128.041 191.643 129.542C191.643 130.588 190.974 130.801 190.57 130.936C191.349 130.989 191.401 131.499 191.508 132.222C191.563 132.678 191.643 133.455 191.803 133.723H190.598C190.57 133.456 190.382 132.008 190.382 131.928C190.304 131.606 190.195 131.446 189.793 131.446H188.803V133.723H187.703V128.041H187.702ZM188.776 130.533H189.659C190.382 130.533 190.517 130.024 190.517 129.73C190.517 128.951 189.98 128.951 189.686 128.951H188.776V130.533Z" fill="#699F63"/>
<path d="M67.2651 64.9191C67.2673 64.3265 67.1128 63.744 66.8173 63.2304C66.5217 62.7168 66.0957 62.2905 65.5822 61.9947L37.7171 45.9586C37.2499 45.687 36.723 45.5347 36.1829 45.5151H35.8947C35.3533 45.5354 34.8251 45.6876 34.3559 45.9586L6.49079 61.9947C5.97809 62.2915 5.55249 62.718 5.25675 63.2313C4.96101 63.7446 4.80553 64.3267 4.80592 64.9191L4.86711 108.1C4.86711 108.7 5.17895 109.259 5.70724 109.553C5.95953 109.705 6.24852 109.786 6.5431 109.786C6.83767 109.786 7.12667 109.705 7.37895 109.553L23.9395 100.07C24.9868 99.4487 25.6243 98.3507 25.6243 97.1507V76.9763C25.6243 75.7737 26.2612 74.6605 27.3046 74.0632L34.3559 70.002C34.8684 69.7048 35.4504 69.5489 36.0428 69.55C36.6164 69.55 37.2059 69.6987 37.7164 70.002L44.7658 74.0632C45.2779 74.3576 45.7032 74.782 45.9987 75.2936C46.2942 75.8051 46.4495 76.3856 46.4487 76.9763V97.1507C46.4487 98.3507 47.0947 99.4553 48.1355 100.07L64.6914 109.553C64.9458 109.705 65.2366 109.786 65.5329 109.786C65.8292 109.786 66.12 109.705 66.3743 109.553C66.6287 109.405 66.8398 109.193 66.9865 108.938C67.1332 108.683 67.2105 108.394 67.2105 108.1L67.2651 64.9191V64.9191ZM201.342 5.55987C201.086 5.41717 200.797 5.34381 200.503 5.34704C200.21 5.35027 199.922 5.42998 199.669 5.57829C199.416 5.72703 199.207 5.93916 199.061 6.19369C198.916 6.44823 198.839 6.73636 198.839 7.02961V49.7928C198.839 50.2132 198.614 50.6026 198.251 50.8132C197.886 51.0237 197.437 51.0237 197.072 50.8132L190.093 46.7921C189.581 46.4975 189.001 46.3426 188.411 46.3428C187.821 46.343 187.241 46.4984 186.73 46.7934L158.853 62.8809C158.342 63.1762 157.916 63.6009 157.621 64.1126C157.325 64.6242 157.17 65.2046 157.17 65.7954V97.977C157.17 98.5679 157.325 99.1484 157.621 99.6602C157.916 100.172 158.341 100.597 158.853 100.893L186.728 116.992C187.24 117.288 187.82 117.443 188.411 117.443C189.002 117.443 189.583 117.288 190.095 116.992L217.974 100.893C218.485 100.597 218.91 100.172 219.206 99.6602C219.501 99.1484 219.656 98.5679 219.657 97.977V17.7559C219.657 17.1565 219.497 16.568 219.193 16.0511C218.89 15.5343 218.454 15.1078 217.93 14.8158L201.342 5.55987ZM198.756 87.4033C198.756 87.7033 198.595 87.9816 198.335 88.1309L188.764 93.648C188.636 93.7214 188.491 93.7601 188.344 93.7601C188.196 93.7601 188.052 93.7214 187.924 93.648L178.353 88.1309C178.225 88.0574 178.118 87.9514 178.044 87.8236C177.971 87.6959 177.932 87.5509 177.932 87.4033V76.3513C177.932 76.0513 178.092 75.773 178.352 75.6224L187.923 70.0941C188.051 70.02 188.196 69.9811 188.344 69.9811C188.492 69.9811 188.637 70.02 188.765 70.0941L198.336 75.6224C198.596 75.773 198.757 76.0513 198.757 76.3513L198.756 87.4033V87.4033ZM294.165 76.0625C294.675 75.7665 295.098 75.3418 295.392 74.8311C295.685 74.3203 295.84 73.7413 295.84 73.152V65.3533C295.84 64.1539 295.202 63.0441 294.164 62.4421L266.467 46.3612C265.955 46.0638 265.373 45.9068 264.781 45.906C264.189 45.9052 263.607 46.0606 263.094 46.3566L235.228 62.4441C234.717 62.7394 234.292 63.1642 233.996 63.6758C233.701 64.1874 233.545 64.7678 233.545 65.3586V97.5316C233.545 98.7415 234.195 99.8579 235.245 100.456L262.938 116.236C263.44 116.522 264.008 116.674 264.586 116.678C265.164 116.681 265.733 116.535 266.239 116.254L282.989 106.944C283.244 107.09 283.533 107.167 283.827 107.167C284.121 107.167 284.41 107.09 284.665 106.944C284.92 106.797 285.132 106.586 285.28 106.332C285.428 106.078 285.507 105.79 285.509 105.496C285.511 105.202 285.436 104.913 285.292 104.657C285.147 104.401 284.938 104.187 284.685 104.037C284.432 103.887 284.144 103.806 283.85 103.802C283.556 103.797 283.266 103.87 283.009 104.013L254.966 87.9178C254.709 87.7703 254.496 87.5576 254.347 87.3011C254.199 87.0447 254.121 86.7536 254.121 86.4572V76.3743C254.121 75.773 254.441 75.2164 254.963 74.9164L263.691 69.8849C263.946 69.7375 264.236 69.6599 264.531 69.6599C264.826 69.6599 265.116 69.7375 265.371 69.8849L274.103 74.9164C274.359 75.064 274.572 75.2765 274.72 75.5324C274.868 75.7884 274.946 76.0788 274.945 76.3743V84.3072C274.946 84.6029 275.024 84.8934 275.172 85.1493C275.32 85.4052 275.533 85.6177 275.789 85.7652C276.045 85.9128 276.336 85.9903 276.632 85.9899C276.927 85.9896 277.218 85.9114 277.474 85.7632L294.165 76.0625V76.0625Z" fill="#333333"/>
<path d="M264.37 74.5553C264.468 74.4984 264.579 74.4685 264.693 74.4685C264.806 74.4685 264.918 74.4984 265.016 74.5553L270.364 77.6408C270.463 77.6975 270.544 77.7791 270.601 77.8774C270.658 77.9757 270.688 78.0872 270.687 78.2007V84.377C270.688 84.4904 270.658 84.6019 270.601 84.7002C270.544 84.7985 270.463 84.8801 270.364 84.9368L265.016 88.0224C264.918 88.0792 264.806 88.1091 264.693 88.1091C264.579 88.1091 264.468 88.0792 264.37 88.0224L259.025 84.9368C258.927 84.8801 258.845 84.7985 258.788 84.7002C258.732 84.6019 258.702 84.4904 258.702 84.377V78.2007C258.702 77.9691 258.825 77.7566 259.025 77.6408L264.37 74.5553V74.5553Z" fill="#699F63"/>
<path d="M113.895 46.5243C113.386 46.2305 112.809 46.0759 112.221 46.0759C111.634 46.0759 111.057 46.2305 110.548 46.5243L82.8283 62.5204C82.3189 62.814 81.8959 63.2367 81.6019 63.7458C81.3078 64.2549 81.1531 64.8325 81.1533 65.4204V97.4375C81.1533 98.6336 81.7915 99.7382 82.827 100.338L110.547 116.347C111.056 116.641 111.633 116.795 112.221 116.795C112.809 116.795 113.387 116.641 113.896 116.347L141.609 100.338C142.118 100.043 142.54 99.6206 142.834 99.1115C143.128 98.6025 143.282 98.0252 143.282 97.4375V65.4191C143.282 64.223 142.644 63.1184 141.608 62.5204L113.895 46.5243Z" fill="url(#paint0_linear)"/>
<path d="M141.663 62.5204L113.865 46.5243C113.593 46.3685 113.3 46.252 112.995 46.1783L81.7849 99.5678C82.054 99.8704 82.3691 100.134 82.7191 100.337L110.563 116.346C110.951 116.568 111.38 116.712 111.824 116.767C112.268 116.823 112.718 116.79 113.149 116.67L142.408 63.0934C142.185 62.8714 141.934 62.6788 141.663 62.5204V62.5204Z" fill="url(#paint1_linear)"/>
<path d="M109.623 40.6441L109.241 40.8618H109.751L109.623 40.6441Z" fill="url(#paint2_linear)"/>
<path d="M141.678 100.337C142.486 99.8704 143.089 99.0934 143.317 98.2072L112.845 46.1493C112.04 45.9852 111.203 46.1187 110.489 46.525L82.8789 62.425L112.706 116.763C113.137 116.705 113.553 116.564 113.93 116.347L141.678 100.337V100.337Z" fill="url(#paint3_linear)"/>
<path d="M144.263 99.8224L144.079 99.5086V99.9289L144.263 99.8224Z" fill="url(#paint4_linear)"/>
<path d="M141.678 100.337L113.93 116.347C113.553 116.564 113.137 116.705 112.706 116.763L113.259 117.769L144.079 99.9289V99.5086L143.317 98.2072C143.089 99.0934 142.486 99.8697 141.678 100.337V100.337Z" fill="url(#paint5_linear)"/>
<path d="M141.678 100.337L113.93 116.347C113.553 116.564 113.137 116.705 112.706 116.763L113.259 117.769L144.079 99.9289V99.5086L143.317 98.2072C143.089 99.0934 142.486 99.8697 141.678 100.337V100.337Z" fill="url(#paint6_linear)"/>
<defs>
<linearGradient id="paint0_linear" x1="123.488" y1="58.4375" x2="98.4454" y2="109.524" gradientUnits="userSpaceOnUse">
<stop stop-color="#41873F"/>
<stop offset="0.329" stop-color="#418B3D"/>
<stop offset="0.635" stop-color="#419637"/>
<stop offset="0.932" stop-color="#3FA92D"/>
<stop offset="1" stop-color="#3FAE2A"/>
</linearGradient>
<linearGradient id="paint1_linear" x1="107.998" y1="85.173" x2="178.266" y2="33.2553" gradientUnits="userSpaceOnUse">
<stop offset="0.138" stop-color="#41873F"/>
<stop offset="0.403" stop-color="#54A044"/>
<stop offset="0.714" stop-color="#66B848"/>
<stop offset="0.908" stop-color="#6CC04A"/>
</linearGradient>
<linearGradient id="paint2_linear" x1="80.1725" y1="40.7526" x2="144.262" y2="40.7526" gradientUnits="userSpaceOnUse">
<stop offset="0.092" stop-color="#6CC04A"/>
<stop offset="0.286" stop-color="#66B848"/>
<stop offset="0.597" stop-color="#54A044"/>
<stop offset="0.862" stop-color="#41873F"/>
</linearGradient>
<linearGradient id="paint3_linear" x1="80.1724" y1="81.4224" x2="144.262" y2="81.4224" gradientUnits="userSpaceOnUse">
<stop offset="0.092" stop-color="#6CC04A"/>
<stop offset="0.286" stop-color="#66B848"/>
<stop offset="0.597" stop-color="#54A044"/>
<stop offset="0.862" stop-color="#41873F"/>
</linearGradient>
<linearGradient id="paint4_linear" x1="80.1687" y1="99.7191" x2="144.263" y2="99.7191" gradientUnits="userSpaceOnUse">
<stop offset="0.092" stop-color="#6CC04A"/>
<stop offset="0.286" stop-color="#66B848"/>
<stop offset="0.597" stop-color="#54A044"/>
<stop offset="0.862" stop-color="#41873F"/>
</linearGradient>
<linearGradient id="paint5_linear" x1="80.1724" y1="107.988" x2="144.263" y2="107.988" gradientUnits="userSpaceOnUse">
<stop offset="0.092" stop-color="#6CC04A"/>
<stop offset="0.286" stop-color="#66B848"/>
<stop offset="0.597" stop-color="#54A044"/>
<stop offset="0.862" stop-color="#41873F"/>
</linearGradient>
<linearGradient id="paint6_linear" x1="153.6" y1="56.9223" x2="114.073" y2="137.557" gradientUnits="userSpaceOnUse">
<stop stop-color="#41873F"/>
<stop offset="0.329" stop-color="#418B3D"/>
<stop offset="0.635" stop-color="#419637"/>
<stop offset="0.932" stop-color="#3FA92D"/>
<stop offset="1" stop-color="#3FAE2A"/>
</linearGradient>
</defs>
</svg>
