<svg width="275" height="275" viewBox="0 0 275 275" fill="none" xmlns="http://www.w3.org/2000/svg">
<g clip-path="url(#clip0)">
<path d="M137.5 161.333C151.169 161.333 162.25 150.458 162.25 137.042C162.25 123.626 151.169 112.75 137.5 112.75C123.831 112.75 112.75 123.626 112.75 137.042C112.75 150.458 123.831 161.333 137.5 161.333Z" fill="#21CBE2"/>
<path d="M137.091 194.333C102.466 194.333 72.2126 190.247 49.5715 182.468C34.8867 177.445 22.412 170.749 13.5226 163.118C4.09287 155.043 -0.916656 146.23 -0.916656 137.712C-0.916656 121.366 16.9605 105.364 46.9685 94.9262C71.525 86.3592 103.547 81.5833 137.042 81.5833C169.947 81.5833 201.527 86.2115 225.936 94.6801C240.228 99.6036 252.261 106.004 260.806 113.094C270.089 120.874 275 129.391 275 137.712C275 154.699 255.011 171.882 222.793 182.566C200.005 190.148 169.554 194.333 137.091 194.333V194.333ZM137.091 93.3999C105.315 93.3999 73.8824 98.0281 50.8975 106.054C23.296 115.704 10.9196 128.899 10.9196 137.712C10.9196 146.87 24.2292 161.296 53.4023 171.291C74.8155 178.627 103.792 182.517 137.091 182.517C168.327 182.517 197.451 178.578 219.109 171.34C249.412 161.247 263.262 146.821 263.262 137.712C263.262 133.035 259.726 127.52 253.292 122.154C245.876 115.95 235.071 110.288 222.154 105.807C198.924 97.8312 168.72 93.3999 137.091 93.3999V93.3999Z" fill="#21CBE2"/>
<path d="M81.0353 260.333C76.0112 260.333 71.5782 259.252 67.8348 257.088C53.6985 248.925 48.7729 225.42 54.7328 194.194C59.6091 168.575 71.529 138.48 88.3251 109.419C104.826 80.8978 124.626 55.8191 144.181 38.8541C155.608 28.921 167.183 21.6432 177.625 17.8077C189.003 13.6279 198.854 13.6279 206.046 17.7585C220.773 26.2164 225.65 52.1802 218.754 85.4218C213.877 109.025 202.253 137.497 185.999 165.674C168.661 195.67 149.944 219.863 131.867 235.648C120.144 245.876 108.077 253.351 97.0433 257.235C91.2804 259.301 85.8623 260.333 81.0353 260.333V260.333ZM93.3984 112.369L98.521 115.32C82.6115 142.857 70.8394 172.41 66.3079 196.407C60.8405 225.174 66.1109 242.483 73.6962 246.86C75.5679 247.942 78.0307 248.532 81.0353 248.532C90.8371 248.532 106.254 242.336 124.085 226.797C141.176 211.897 159.056 188.687 175.754 159.822C191.417 132.727 202.549 105.485 207.179 83.1106C213.631 51.7868 208.065 32.609 200.135 28.0358C196.096 25.7247 189.545 26.0197 181.664 28.921C172.552 32.2648 162.258 38.8049 151.914 47.8037C133.345 63.9328 114.381 87.9296 98.521 115.369L93.3984 112.369Z" fill="#21CBE2"/>
<path d="M192.87 260.333C179.502 260.333 162.546 252.266 144.853 237.016C125.095 219.996 104.994 194.662 88.1851 165.59C71.6714 137.058 59.8758 107.395 54.9119 81.9632C52.0122 67.1072 51.4715 53.4811 53.3392 42.5112C55.4034 30.5576 60.269 22.0474 67.4938 17.8661C82.1399 9.35585 107.058 18.112 132.418 40.6911C150.406 56.6785 169.279 80.9794 185.547 109.117C202.897 139.124 214.545 167.41 219.165 190.923C222.163 206.173 222.654 220.34 220.541 231.851C218.28 244.1 213.169 252.807 205.796 257.087C202.11 259.251 197.736 260.333 192.87 260.333ZM98.4079 159.687C114.332 187.234 134.089 212.174 152.569 228.063C174.735 247.15 192.33 251.282 199.948 246.855C207.861 242.28 213.66 223.538 207.664 193.235C203.241 171.001 192.084 143.945 175.374 115.069C159.695 87.9646 141.658 64.6968 124.604 49.5457C100.718 28.2948 81.3535 23.5231 73.4407 28.098C69.4106 30.41 66.4125 36.2639 64.9872 44.5281C63.3653 54.0714 63.8568 66.271 66.5108 79.7004C71.229 103.854 82.5331 132.237 98.4079 159.687V159.687Z" fill="#21CBE2"/>
</g>
<defs>
<clipPath id="clip0">
<rect width="275" height="275" fill="white"/>
</clipPath>
</defs>
</svg>
